<svg width="220" height="15" viewBox="0 0 178 15" fill="none" xmlns="http://www.w3.org/2000/svg">
<path d="M4.93757 7.77774H10.5717C13.0946 7.77774 14.4567 8.72191 14.4567 10.6103C14.4567 12.7308 13.172 14 10.0144 14H0.371478L2.43009 11.3377H10.2621C11.0205 11.3377 11.361 11.121 11.361 10.5793C11.361 10.053 11.0205 9.83635 10.2621 9.83635H4.628C1.96574 9.83635 0.742957 8.64452 0.742957 6.86452C0.742957 4.91426 2.04313 3.64504 5.18522 3.64504H14.1781L12.1195 6.33826H4.93757C4.19461 6.33826 3.83861 6.524 3.83861 7.05026C3.83861 7.57652 4.19461 7.77774 4.93757 7.77774ZM29.5463 7.53009C29.5463 9.82087 27.6734 11.3532 24.454 11.3532H19.0366V14H15.848V8.70643H24.7635C25.7541 8.70643 26.3268 8.22661 26.3268 7.51461C26.3268 6.78713 25.7541 6.33826 24.7635 6.33826H15.848L17.9686 3.64504H24.4694C27.6734 3.64504 29.5463 5.22383 29.5463 7.53009ZM38.4197 3.47478C43.4501 3.47478 45.9886 5.11548 45.9886 8.81478C45.9886 12.5141 43.4501 14.1703 38.4197 14.1703C33.3738 14.1703 30.8508 12.5141 30.8508 8.81478C30.8508 5.11548 33.3738 3.47478 38.4197 3.47478ZM38.4197 11.477C41.6392 11.477 42.8001 11.0437 42.8001 8.81478C42.8001 6.58591 41.6392 6.168 38.4197 6.168C35.2002 6.168 34.0394 6.58591 34.0394 8.81478C34.0394 11.0437 35.2002 11.477 38.4197 11.477ZM60.3915 11.9878L62.2953 14H58.0078L55.7015 11.2603H50.7795V14H47.5755V8.70643H56.5838C57.5744 8.70643 58.3483 8.25756 58.3483 7.54556C58.3483 6.7407 57.6828 6.33826 56.5838 6.33826H47.5755L49.665 3.64504H56.3207C58.6734 3.64504 61.6452 4.388 61.6452 7.34435C61.6452 8.95409 60.6391 10.2852 58.9365 10.6257C59.2925 10.8889 59.6795 11.2603 60.3915 11.9878ZM68.9823 11.3377H76.2416L74.183 14H68.9823C65.3913 14 62.7445 11.7247 62.7445 8.72191C62.7445 5.68817 65.3913 3.64504 68.9823 3.64504H76.2416L74.183 6.33826H68.9823C67.2487 6.33826 65.9485 7.3753 65.9485 8.86122C65.9485 10.3317 67.2332 11.3377 68.9823 11.3377ZM90.8043 3.64504V9.48035C90.8043 12.607 88.6528 14.1703 84.3499 14.1703C79.3659 14.1703 77.2144 12.607 77.2144 9.48035V3.64504H80.4029V9.48035C80.4029 11.0127 81.053 11.508 84.3499 11.508C86.8109 11.508 87.5848 10.9353 87.5848 9.48035V3.64504H90.8043ZM114.968 14H102.926L104.861 11.3377H107.461C108.08 11.3377 108.808 11.3377 109.303 11.3687C109.024 10.9972 108.591 10.3626 108.25 9.8673L106.393 7.12765L101.533 14H97.7407L104.381 4.63565C104.814 4.032 105.449 3.47478 106.455 3.47478C107.415 3.47478 108.049 3.98556 108.498 4.63565L114.968 14ZM126.604 14.1703C126.202 14.1703 125.815 14.0774 125.319 13.613L118.973 7.91704V14H116.063V5.40957C116.063 4.032 116.899 3.47478 117.812 3.47478C118.199 3.47478 118.586 3.56765 119.097 4.032L125.443 9.728V3.64504H128.369V12.22C128.369 13.5976 127.533 14.1703 126.604 14.1703ZM146.242 14H134.2L136.135 11.3377H138.735C139.354 11.3377 140.082 11.3377 140.577 11.3687C140.298 10.9972 139.865 10.3626 139.524 9.8673L137.667 7.12765L132.807 14H129.015L135.655 4.63565C136.088 4.032 136.723 3.47478 137.729 3.47478C138.689 3.47478 139.323 3.98556 139.772 4.63565L146.242 14ZM150.588 11.3377H158.606L156.531 14H147.384V3.64504H150.588V11.3377ZM162.923 3.64504V14H159.719V3.64504H162.923ZM160.013 1.54C160.013 0.797043 160.601 0.379129 161.329 0.379129C162.072 0.379129 162.66 0.797043 162.66 1.54C162.66 2.252 162.072 2.66991 161.329 2.66991C160.601 2.66991 160.013 2.252 160.013 1.54ZM177.734 11.3377L175.799 14H165.986C165.181 14 164.5 13.5357 164.5 12.6998C164.5 12.22 164.763 11.7557 165.196 11.4151L168.973 8.4433C170.691 7.06574 171.434 6.55496 171.821 6.27635C171.264 6.32278 170.32 6.33826 168.261 6.33826H164.113L166.156 3.64504H175.706C176.511 3.64504 177.192 4.10939 177.192 4.94522C177.192 5.40957 176.929 5.88939 176.495 6.21443L172.672 9.24817C170.97 10.5948 170.258 11.121 169.855 11.3997C170.366 11.3687 172.347 11.3377 173.973 11.3377H177.734Z" fill="white"/>
</svg>
