<svg width="220" height="15" viewBox="0 0 178 15" fill="none" xmlns="http://www.w3.org/2000/svg">
<path d="M4.93757 8.35391H10.5717C13.0946 8.35391 14.4567 9.29808 14.4567 11.1864C14.4567 13.307 13.172 14.5762 10.0144 14.5762H0.371478L2.43009 11.9139H10.2621C11.0205 11.9139 11.361 11.6972 11.361 11.1555C11.361 10.6292 11.0205 10.4125 10.2621 10.4125H4.628C1.96574 10.4125 0.742957 9.22069 0.742957 7.44069C0.742957 5.49043 2.04313 4.22121 5.18522 4.22121H14.1781L12.1195 6.91443H4.93757C4.19461 6.91443 3.83861 7.10017 3.83861 7.62643C3.83861 8.15269 4.19461 8.35391 4.93757 8.35391ZM29.5463 8.10626C29.5463 10.397 27.6734 11.9294 24.454 11.9294H19.0366V14.5762H15.848V9.28261H24.7635C25.7541 9.28261 26.3268 8.80278 26.3268 8.09078C26.3268 7.3633 25.7541 6.91443 24.7635 6.91443H15.848L17.9686 4.22121H24.4694C27.6734 4.22121 29.5463 5.8 29.5463 8.10626ZM38.4197 4.05095C43.4501 4.05095 45.9886 5.69165 45.9886 9.39095C45.9886 13.0903 43.4501 14.7464 38.4197 14.7464C33.3738 14.7464 30.8508 13.0903 30.8508 9.39095C30.8508 5.69165 33.3738 4.05095 38.4197 4.05095ZM38.4197 12.0532C41.6392 12.0532 42.8001 11.6198 42.8001 9.39095C42.8001 7.16208 41.6392 6.74417 38.4197 6.74417C35.2002 6.74417 34.0394 7.16208 34.0394 9.39095C34.0394 11.6198 35.2002 12.0532 38.4197 12.0532ZM60.3915 12.564L62.2953 14.5762H58.0078L55.7015 11.8365H50.7795V14.5762H47.5755V9.28261H56.5838C57.5744 9.28261 58.3483 8.83374 58.3483 8.12174C58.3483 7.31687 57.6828 6.91443 56.5838 6.91443H47.5755L49.665 4.22121H56.3207C58.6734 4.22121 61.6452 4.96417 61.6452 7.92052C61.6452 9.53026 60.6391 10.8614 58.9365 11.2019C59.2925 11.465 59.6795 11.8365 60.3915 12.564ZM68.9823 11.9139H76.2416L74.183 14.5762H68.9823C65.3913 14.5762 62.7445 12.3009 62.7445 9.29808C62.7445 6.26435 65.3913 4.22121 68.9823 4.22121H76.2416L74.183 6.91443H68.9823C67.2487 6.91443 65.9485 7.95148 65.9485 9.43739C65.9485 10.9078 67.2332 11.9139 68.9823 11.9139ZM90.8043 4.22121V10.0565C90.8043 13.1831 88.6528 14.7464 84.3499 14.7464C79.3659 14.7464 77.2144 13.1831 77.2144 10.0565V4.22121H80.4029V10.0565C80.4029 11.5889 81.053 12.0842 84.3499 12.0842C86.8109 12.0842 87.5848 11.5115 87.5848 10.0565V4.22121H90.8043ZM114.968 14.5762H102.926L104.861 11.9139H107.461C108.08 11.9139 108.808 11.9139 109.303 11.9449C109.024 11.5734 108.591 10.9388 108.25 10.4435L106.393 7.70382L101.533 14.5762H97.7407L104.381 5.21182C104.814 4.60817 105.449 4.05095 106.455 4.05095C107.415 4.05095 108.049 4.56174 108.498 5.21182L114.968 14.5762ZM126.604 14.7464C126.202 14.7464 125.815 14.6536 125.319 14.1892L118.973 8.49322V14.5762H116.063V5.98574C116.063 4.60817 116.899 4.05095 117.812 4.05095C118.199 4.05095 118.586 4.14382 119.097 4.60817L125.443 10.3042V4.22121H128.369V12.7962C128.369 14.1737 127.533 14.7464 126.604 14.7464ZM146.242 14.5762H134.2L136.135 11.9139H138.735C139.354 11.9139 140.082 11.9139 140.577 11.9449C140.298 11.5734 139.865 10.9388 139.524 10.4435L137.667 7.70382L132.807 14.5762H129.015L135.655 5.21182C136.088 4.60817 136.723 4.05095 137.729 4.05095C138.689 4.05095 139.323 4.56174 139.772 5.21182L146.242 14.5762ZM150.588 11.9139H158.606L156.531 14.5762H147.384V4.22121H150.588V11.9139ZM162.923 4.22121V14.5762H159.719V4.22121H162.923ZM160.013 2.11617C160.013 1.37321 160.601 0.955301 161.329 0.955301C162.072 0.955301 162.66 1.37321 162.66 2.11617C162.66 2.82817 162.072 3.24608 161.329 3.24608C160.601 3.24608 160.013 2.82817 160.013 2.11617ZM177.734 11.9139L175.799 14.5762H165.986C165.181 14.5762 164.5 14.1118 164.5 13.276C164.5 12.7962 164.763 12.3318 165.196 11.9913L168.973 9.01948C170.691 7.64191 171.434 7.13113 171.821 6.85252C171.264 6.89895 170.32 6.91443 168.261 6.91443H164.113L166.156 4.22121H175.706C176.511 4.22121 177.192 4.68556 177.192 5.52139C177.192 5.98574 176.929 6.46556 176.495 6.79061L172.672 9.82435C170.97 11.171 170.258 11.6972 169.855 11.9758C170.366 11.9449 172.347 11.9139 173.973 11.9139H177.734Z" fill="#263238"/>
</svg>
